<svg width="200" height="200" viewBox="0 0 200 200" fill="none" xmlns="http://www.w3.org/2000/svg">
<g clip-path="url(#clip0_6_243)">
<path fill-rule="evenodd" clip-rule="evenodd" d="M193.75 100C193.75 151.773 151.777 193.75 100 193.75C48.2227 193.75 6.25 151.773 6.25 100C6.25 48.2227 48.2227 6.25 100 6.25C151.777 6.25 193.75 48.2227 193.75 100Z" fill="#32D635"/>
<path fill-rule="evenodd" clip-rule="evenodd" d="M187.5 100C187.5 148.322 148.326 187.5 100 187.5C51.6745 187.5 12.5 148.322 12.5 100C12.5 51.6745 51.6745 12.5 100 12.5C148.326 12.5 187.5 51.6745 187.5 100Z" fill="#196B1A"/>
<path fill-rule="evenodd" clip-rule="evenodd" d="M184.375 100C184.375 146.596 146.6 184.375 100 184.375C53.4004 184.375 15.625 146.596 15.625 100C15.625 53.4004 53.4004 15.625 100 15.625C146.6 15.625 184.375 53.4004 184.375 100Z" fill="#104711"/>
<path fill-rule="evenodd" clip-rule="evenodd" d="M178.125 100C178.125 143.145 143.148 178.125 100 178.125C56.8522 178.125 21.875 143.145 21.875 100C21.875 56.8522 56.8522 21.875 100 21.875C143.148 21.875 178.125 56.8522 178.125 100Z" fill="black"/>
<path fill-rule="evenodd" clip-rule="evenodd" d="M93.4503 92.4658C94.9914 89.726 93.4503 88.3562 91.9092 88.3562C85.7449 88.3562 77.2688 101.37 74.1866 101.37C72.6455 101.37 71.875 100 71.875 99.3151C71.875 96.5753 79.5805 90.411 81.8921 88.3562C88.8271 82.8767 98.0736 78.0822 108.091 78.0822C115.796 78.0822 123.502 82.1918 117.337 97.2603L105.009 127.397C103.467 128.767 101.156 132.877 101.156 135.616C101.156 136.986 101.926 137.671 103.467 137.671C108.861 137.671 118.108 124.658 120.42 124.658C121.19 124.658 122.731 125.342 122.731 126.712C122.731 130.822 102.697 150 84.9743 150C78.8099 150 74.1866 147.26 74.1866 141.781C74.1866 134.247 80.351 121.918 81.1216 119.178L93.4503 92.4658ZM102.697 62.3288C102.697 55.4795 109.632 50 116.567 50C123.502 50 128.125 54.1096 128.125 60.274C128.125 67.1233 121.19 72.6027 113.485 72.6027C107.32 72.6027 102.697 68.4932 102.697 62.3288Z" fill="#32D635"/>
</g>
<defs>
<clipPath id="clip0_6_243">
<rect width="200" height="200" fill="white"/>
</clipPath>
</defs>
</svg>
