<svg width="200" height="200" viewBox="0 0 200 200" fill="none" xmlns="http://www.w3.org/2000/svg">
<g clip-path="url(#clip0_10_348)">
<path fill-rule="evenodd" clip-rule="evenodd" d="M193.75 100C193.75 151.773 151.777 193.75 100 193.75C48.2227 193.75 6.25 151.773 6.25 100C6.25 48.2227 48.2227 6.25 100 6.25C151.777 6.25 193.75 48.2227 193.75 100Z" fill="#666666"/>
<path fill-rule="evenodd" clip-rule="evenodd" d="M187.5 100C187.5 148.322 148.326 187.5 100 187.5C51.6745 187.5 12.5 148.322 12.5 100C12.5 51.6745 51.6745 12.5 100 12.5C148.326 12.5 187.5 51.6745 187.5 100Z" fill="#444444"/>
<path fill-rule="evenodd" clip-rule="evenodd" d="M184.375 100C184.375 146.596 146.6 184.375 100 184.375C53.4004 184.375 15.625 146.596 15.625 100C15.625 53.4004 53.4004 15.625 100 15.625C146.6 15.625 184.375 53.4004 184.375 100Z" fill="#222222"/>
<path fill-rule="evenodd" clip-rule="evenodd" d="M178.125 100C178.125 143.145 143.148 178.125 100 178.125C56.8522 178.125 21.875 143.145 21.875 100C21.875 56.8522 56.8522 21.875 100 21.875C143.148 21.875 178.125 56.8522 178.125 100Z" fill="black"/>
<path fill-rule="evenodd" clip-rule="evenodd" d="M52.2727 150H100V143.75H50V150H52.2727ZM52.5568 131.25H106.25V125H50V131.25H52.5568ZM54.1667 112.5H100V106.25H50V112.5H54.1667ZM54.5455 93.75H150V87.5H50V93.75H54.5455ZM54.5455 75H150V68.75H50V75H54.5455ZM54.1667 56.25H100V50H50V56.25H54.1667Z" fill="#666666"/>
<path fill-rule="evenodd" clip-rule="evenodd" d="M156.25 106.25C169.978 106.25 182.413 111.782 191.449 120.739C183.515 155.863 155.865 183.515 120.741 191.448C111.782 182.412 106.25 169.977 106.25 156.25C106.25 128.635 128.635 106.25 156.25 106.25Z" fill="#222222"/>
<path fill-rule="evenodd" clip-rule="evenodd" d="M200 156.25C200 180.411 180.413 200 156.25 200C132.087 200 112.5 180.411 112.5 156.25C112.5 132.087 132.087 112.5 156.25 112.5C180.413 112.5 200 132.087 200 156.25Z" fill="#666666"/>
<path fill-rule="evenodd" clip-rule="evenodd" d="M193.75 156.25C193.75 176.959 176.961 193.75 156.25 193.75C135.539 193.75 118.75 176.959 118.75 156.25C118.75 135.539 135.539 118.75 156.25 118.75C176.961 118.75 193.75 135.539 193.75 156.25Z" fill="#444444"/>
<path fill-rule="evenodd" clip-rule="evenodd" d="M190.625 156.25C190.625 175.234 175.235 190.625 156.25 190.625C137.265 190.625 121.875 175.234 121.875 156.25C121.875 137.265 137.265 121.875 156.25 121.875C175.235 121.875 190.625 137.265 190.625 156.25Z" fill="#222222"/>
<path fill-rule="evenodd" clip-rule="evenodd" d="M185.938 156.25C185.938 172.645 172.646 185.938 156.25 185.938C139.854 185.938 126.562 172.645 126.562 156.25C126.562 139.854 139.854 126.562 156.25 126.562C172.646 126.562 185.938 139.854 185.938 156.25Z" fill="black"/>
<path fill-rule="evenodd" clip-rule="evenodd" d="M139.205 171.875H175V165.625H137.5V171.875H139.205ZM139.205 159.375H175V153.125H137.5V159.375H139.205ZM139.062 146.875H156.25V140.625H137.5V146.875H139.062Z" fill="#666666"/>
</g>
<defs>
<clipPath id="clip0_10_348">
<rect width="200" height="200" fill="white"/>
</clipPath>
</defs>
</svg>
