<svg width="200" height="200" viewBox="0 0 200 200" fill="none" xmlns="http://www.w3.org/2000/svg">
<g clip-path="url(#clip0_4_175)">
<path fill-rule="evenodd" clip-rule="evenodd" d="M175 81.25C175 122.669 141.422 156.25 100 156.25C58.5781 156.25 25 122.669 25 81.25C25 39.8281 58.5781 6.25 100 6.25C141.422 6.25 175 39.8281 175 81.25Z" fill="#666666"/>
<path fill-rule="evenodd" clip-rule="evenodd" d="M143.75 150C143.75 174.161 124.163 193.75 100 193.75C75.8372 193.75 56.25 174.161 56.25 150C56.25 125.837 75.8372 106.25 100 106.25C124.163 106.25 143.75 125.837 143.75 150Z" fill="#666666"/>
<path fill-rule="evenodd" clip-rule="evenodd" d="M168.75 81.25C168.75 119.217 137.97 150 100 150C62.0299 150 31.25 119.217 31.25 81.25C31.25 43.2799 62.0299 12.5 100 12.5C137.97 12.5 168.75 43.2799 168.75 81.25Z" fill="#444444"/>
<path fill-rule="evenodd" clip-rule="evenodd" d="M137.5 150C137.5 170.709 120.711 187.5 100 187.5C79.2891 187.5 62.5 170.709 62.5 150C62.5 129.289 79.2891 112.5 100 112.5C120.711 112.5 137.5 129.289 137.5 150Z" fill="#444444"/>
<path fill-rule="evenodd" clip-rule="evenodd" d="M165.625 81.25C165.625 117.491 136.244 146.875 100 146.875C63.7559 146.875 34.375 117.491 34.375 81.25C34.375 45.0059 63.7559 15.625 100 15.625C136.244 15.625 165.625 45.0059 165.625 81.25Z" fill="#222222"/>
<path fill-rule="evenodd" clip-rule="evenodd" d="M134.375 150C134.375 168.984 118.985 184.375 100 184.375C81.015 184.375 65.625 168.984 65.625 150C65.625 131.015 81.015 115.625 100 115.625C118.985 115.625 134.375 131.015 134.375 150Z" fill="#222222"/>
<path fill-rule="evenodd" clip-rule="evenodd" d="M100 21.875C132.792 21.875 159.375 48.4577 159.375 81.25C159.375 104.896 145.551 125.315 125.544 134.864C128.176 139.296 129.688 144.471 129.688 150C129.688 166.395 116.396 179.688 100 179.688C83.6038 179.688 70.3125 166.395 70.3125 150C70.3125 144.471 71.8237 139.296 74.4555 134.864C54.4486 125.315 40.625 104.896 40.625 81.25C40.625 48.4577 67.2077 21.875 100 21.875Z" fill="black"/>
<path fill-rule="evenodd" clip-rule="evenodd" d="M100 160.55C106.472 160.55 111.719 155.886 111.719 150.133C111.719 144.38 106.472 139.717 100 139.717C93.5276 139.717 88.2812 144.38 88.2812 150.133C88.2812 155.886 93.5276 160.55 100 160.55ZM100 131.383C100 131.383 83.5938 102.217 83.5938 87.6332C83.5938 73.0498 100 73.0498 100 73.0498C100 73.0498 116.406 73.0498 116.406 87.6332C116.406 102.217 100 131.383 100 131.383Z" fill="#32D635"/>
<path fill-rule="evenodd" clip-rule="evenodd" d="M65.9091 62.5H137.5V56.25H62.5V62.5H65.9091ZM65.625 50H100V43.75H62.5V50H65.625Z" fill="#32D635"/>
<path fill-rule="evenodd" clip-rule="evenodd" d="M172.196 60.8624L168.757 58.9662L141.205 74.1947L146.453 41.9954L124.526 19.5289L139.194 17.2931C155.064 27.039 167.028 42.5262 172.196 60.8624Z" fill="#222222"/>
<path fill-rule="evenodd" clip-rule="evenodd" d="M168.756 51.825L188.056 62.5L184.369 39.8875L200 23.875L178.406 20.5625L168.744 0L159.094 20.5812L137.5 23.875L153.131 39.8875L149.444 62.5L168.756 51.825Z" fill="#257EDE"/>
<path fill-rule="evenodd" clip-rule="evenodd" d="M164.966 118.75C168.323 112.947 170.925 106.652 172.637 100L158.378 100C147.202 100 138.201 108.841 138.201 119.867V134.091H131.25V180.618C138.982 172.727 143.75 161.92 143.75 150C143.75 147.483 143.537 145.016 143.129 142.616C145.527 140.927 147.821 139.102 150 137.152V168.75H187.5V118.75H164.966Z" fill="#222222"/>
<path fill-rule="evenodd" clip-rule="evenodd" d="M150 156.25V150H187.5V156.25H150ZM150 168.75V162.5H187.5V168.75H150ZM156.25 118.75H181.25V137.5H156.25V118.75ZM193.056 140.341V119.867C193.056 112.355 186.818 106.25 179.128 106.25H158.378C150.598 106.25 144.451 112.348 144.451 119.867V140.341H137.5V181.25H200V140.341H193.056Z" fill="#666666"/>
</g>
<defs>
<clipPath id="clip0_4_175">
<rect width="200" height="200" fill="white"/>
</clipPath>
</defs>
</svg>
