<svg width="200" height="200" viewBox="0 0 200 200" fill="none" xmlns="http://www.w3.org/2000/svg">
<g clip-path="url(#clip0_4_112)">
<path fill-rule="evenodd" clip-rule="evenodd" d="M193.75 100C193.75 151.773 151.777 193.75 100 193.75C48.2227 193.75 6.25 151.773 6.25 100C6.25 48.2227 48.2227 6.25 100 6.25C151.777 6.25 193.75 48.2227 193.75 100Z" fill="#666666"/>
<path fill-rule="evenodd" clip-rule="evenodd" d="M187.5 100C187.5 148.322 148.326 187.5 100 187.5C51.6745 187.5 12.5 148.322 12.5 100C12.5 51.6745 51.6745 12.5 100 12.5C148.326 12.5 187.5 51.6745 187.5 100Z" fill="#444444"/>
<path fill-rule="evenodd" clip-rule="evenodd" d="M184.375 100C184.375 146.596 146.6 184.375 100 184.375C53.4004 184.375 15.625 146.596 15.625 100C15.625 53.4004 53.4004 15.625 100 15.625C146.6 15.625 184.375 53.4004 184.375 100Z" fill="#222222"/>
<path fill-rule="evenodd" clip-rule="evenodd" d="M178.125 100C178.125 143.145 143.148 178.125 100 178.125C56.8522 178.125 21.875 143.145 21.875 100C21.875 56.8522 56.8522 21.875 100 21.875C143.148 21.875 178.125 56.8522 178.125 100Z" fill="black"/>
<path fill-rule="evenodd" clip-rule="evenodd" d="M54.1667 150H100V143.75H50V150H54.1667ZM54.5455 131.25H150V125H50V131.25H54.5455ZM54.5455 112.5H150V106.25H50V112.5H54.5455ZM54.5455 93.7504H150V87.5004H50V93.7504H54.5455ZM53.6932 75.0004H131.25V68.7504H50V75.0004H53.6932ZM53.5156 56.2496H106.25V49.9996H50V56.2496H53.5156Z" fill="#32D635"/>
<path fill-rule="evenodd" clip-rule="evenodd" d="M188.879 70.095L168.757 58.9663L141.205 74.1947L146.453 41.9954L124.526 19.5289L143.063 16.7031C164.489 27.8022 181.087 46.9255 188.879 70.095Z" fill="#222222"/>
<path fill-rule="evenodd" clip-rule="evenodd" d="M168.756 51.825L188.056 62.5L184.369 39.8875L200 23.875L178.406 20.5625L168.744 0L159.094 20.5812L137.5 23.875L153.131 39.8875L149.444 62.5L168.756 51.825Z" fill="#257EDE"/>
</g>
<defs>
<clipPath id="clip0_4_112">
<rect width="200" height="200" fill="white"/>
</clipPath>
</defs>
</svg>
