<svg width="200" height="200" viewBox="0 0 200 200" fill="none" xmlns="http://www.w3.org/2000/svg">
<g clip-path="url(#clip0_4_78)">
<path fill-rule="evenodd" clip-rule="evenodd" d="M193.75 100C193.75 151.773 151.777 193.75 100 193.75C48.2227 193.75 6.25 151.773 6.25 100C6.25 48.2227 48.2227 6.25 100 6.25C151.777 6.25 193.75 48.2227 193.75 100Z" fill="#32D635"/>
<path fill-rule="evenodd" clip-rule="evenodd" d="M187.5 100C187.5 148.322 148.326 187.5 100 187.5C51.6745 187.5 12.5 148.322 12.5 100C12.5 51.6745 51.6745 12.5 100 12.5C148.326 12.5 187.5 51.6745 187.5 100Z" fill="#196B1A"/>
<path fill-rule="evenodd" clip-rule="evenodd" d="M184.375 100C184.375 146.596 146.6 184.375 100 184.375C53.4004 184.375 15.625 146.596 15.625 100C15.625 53.4004 53.4004 15.625 100 15.625C146.6 15.625 184.375 53.4004 184.375 100Z" fill="#104711"/>
<path fill-rule="evenodd" clip-rule="evenodd" d="M178.125 100C178.125 143.145 143.148 178.125 100 178.125C56.8522 178.125 21.875 143.145 21.875 100C21.875 56.8522 56.8522 21.875 100 21.875C143.148 21.875 178.125 56.8522 178.125 100Z" fill="black"/>
<path fill-rule="evenodd" clip-rule="evenodd" d="M54.1667 150H100V143.75H50V150H54.1667ZM53.6932 131.25H131.25V125H50V131.25H53.6932ZM54.5455 112.5H150V106.25H50V112.5H54.5455ZM54.5455 93.7504H150V87.5004H50V93.7504H54.5455ZM53.6932 75.0004H131.25V68.7504H50V75.0004H53.6932ZM53.5156 56.2496H106.25V49.9996H50V56.2496H53.5156Z" fill="#32D635"/>
<path fill-rule="evenodd" clip-rule="evenodd" d="M188.879 70.0949L168.757 58.9662L141.205 74.1947L146.453 41.9954L124.526 19.5289L143.063 16.7031C164.489 27.8022 181.087 46.9255 188.879 70.0949Z" fill="#104711"/>
<path fill-rule="evenodd" clip-rule="evenodd" d="M168.756 51.825L188.056 62.5L184.369 39.8875L200 23.875L178.406 20.5625L168.744 0L159.094 20.5812L137.5 23.875L153.131 39.8875L149.444 62.5L168.756 51.825Z" fill="#257EDE"/>
<path fill-rule="evenodd" clip-rule="evenodd" d="M131.25 188.415V152.841H138.201V138.617C138.201 127.591 147.202 118.75 158.378 118.75H179.128C183.566 118.75 187.678 120.165 191.016 122.566C189.741 127.726 188.039 132.717 185.949 137.5H187.5V187.5H150V179.317C144.155 183.01 137.873 186.074 131.25 188.415Z" fill="#104711"/>
<path fill-rule="evenodd" clip-rule="evenodd" d="M150 175V168.75H187.5V175H150ZM150 187.5V181.25H187.5V187.5H150ZM156.25 137.5H181.25V156.25H156.25V137.5ZM193.056 159.091V138.617C193.056 131.105 186.818 125 179.128 125H158.378C150.598 125 144.451 131.098 144.451 138.617V159.091H137.5V200H200V159.091H193.056Z" fill="#666666"/>
</g>
<defs>
<clipPath id="clip0_4_78">
<rect width="200" height="200" fill="white"/>
</clipPath>
</defs>
</svg>
