<svg width="200" height="200" viewBox="0 0 200 200" fill="none" xmlns="http://www.w3.org/2000/svg">
<path fill-rule="evenodd" clip-rule="evenodd" d="M193.75 100C193.75 151.773 151.777 193.75 100 193.75C48.2227 193.75 6.25 151.773 6.25 100C6.25 48.2227 48.2227 6.25 100 6.25C151.777 6.25 193.75 48.2227 193.75 100Z" fill="#666666"/>
<path fill-rule="evenodd" clip-rule="evenodd" d="M187.5 100C187.5 148.322 148.326 187.5 100 187.5C51.6745 187.5 12.5 148.322 12.5 100C12.5 51.6745 51.6745 12.5 100 12.5C148.326 12.5 187.5 51.6745 187.5 100Z" fill="#444444"/>
<path fill-rule="evenodd" clip-rule="evenodd" d="M184.375 100C184.375 146.596 146.6 184.375 100 184.375C53.4004 184.375 15.625 146.596 15.625 100C15.625 53.4004 53.4004 15.625 100 15.625C146.6 15.625 184.375 53.4004 184.375 100Z" fill="#222222"/>
<path fill-rule="evenodd" clip-rule="evenodd" d="M178.125 100C178.125 143.145 143.148 178.125 100 178.125C56.8522 178.125 21.875 143.145 21.875 100C21.875 56.8522 56.8522 21.875 100 21.875C143.148 21.875 178.125 56.8522 178.125 100Z" fill="black"/>
<path fill-rule="evenodd" clip-rule="evenodd" d="M93.6489 50.2061C99.1718 64.3873 96.2974 72.114 90.1174 78.2485C83.342 85.0227 72.871 90.0981 65.4796 100.05C55.6245 113.271 53.9819 142.38 89.4331 150C74.5135 142.465 71.2969 120.643 87.4483 106.995C83.2052 120.216 90.9387 128.675 100.589 125.618C109.965 122.562 116.124 128.959 115.919 136.423C115.782 141.47 113.66 145.806 108.254 148.223C131.317 144.313 140.625 125.974 140.625 111.97C140.625 93.5598 123.447 91.0009 132.07 75.5758C121.804 76.4288 118.246 82.8263 119.272 93.4177C119.888 100.384 112.291 105.146 106.68 101.948C102.163 99.3176 102.231 94.228 106.2 90.4322C114.687 82.3998 117.972 63.8612 93.4709 50L93.6489 50.2061Z" fill="#32D635"/>
</svg>
