<svg width="200" height="200" viewBox="0 0 200 200" fill="none" xmlns="http://www.w3.org/2000/svg">
<g clip-path="url(#clip0_4_122)">
<path fill-rule="evenodd" clip-rule="evenodd" d="M193.75 100C193.75 151.773 151.777 193.75 100 193.75C48.2227 193.75 6.25 151.773 6.25 100C6.25 48.2227 48.2227 6.25 100 6.25C151.777 6.25 193.75 48.2227 193.75 100Z" fill="#666666"/>
<path fill-rule="evenodd" clip-rule="evenodd" d="M187.5 100C187.5 148.322 148.326 187.5 100 187.5C51.6745 187.5 12.5 148.322 12.5 100C12.5 51.6745 51.6745 12.5 100 12.5C148.326 12.5 187.5 51.6745 187.5 100Z" fill="#444444"/>
<path fill-rule="evenodd" clip-rule="evenodd" d="M184.375 100C184.375 146.596 146.6 184.375 100 184.375C53.4004 184.375 15.625 146.596 15.625 100C15.625 53.4004 53.4004 15.625 100 15.625C146.6 15.625 184.375 53.4004 184.375 100Z" fill="#222222"/>
<path fill-rule="evenodd" clip-rule="evenodd" d="M178.125 100C178.125 143.145 143.148 178.125 100 178.125C56.8522 178.125 21.875 143.145 21.875 100C21.875 56.8522 56.8522 21.875 100 21.875C143.148 21.875 178.125 56.8522 178.125 100Z" fill="black"/>
<path fill-rule="evenodd" clip-rule="evenodd" d="M55.2083 150H112.5V143.75H50V150H55.2083ZM54.5455 131.25H150V125H50V131.25H54.5455ZM126.136 112.5H150V106.25H125V112.5H126.136ZM126.136 93.75H150V87.5H125V93.75H126.136Z" fill="#666666"/>
<path fill-rule="evenodd" clip-rule="evenodd" d="M53.2187 112.5L74.65 89.375L96.0813 112.5H105.5L112.5 104.95L86.4312 76.7375L108.05 53.4313V50H50V112.5H53.2187Z" fill="#666666"/>
</g>
<defs>
<clipPath id="clip0_4_122">
<rect width="200" height="200" fill="white"/>
</clipPath>
</defs>
</svg>
